<?xml version="1.0" encoding="UTF-8"?>
<svg xmlns="http://www.w3.org/2000/svg" width="800" height="96" viewBox="0 0 800 96">
  <g transform="translate(8, 20) scale(0.21875)">
    <g>
    <path d="M255.878566,127.868028 C255.878566,198.323171 198.768494,255.43274 128.312347,255.43274 C57.8622265,255.43274 0.746127325,198.323171 0.746127325,127.868028 C0.746127325,57.4179077 57.8622265,0.301808544 128.312347,0.301808544 C198.768494,0.301808544 255.878566,57.4179077 255.878566,127.868028" fill="#f8f8f8"/>
    <path d="M130.459863,78.228885 L163.47146,159.705138 L113.608007,120.427335 L130.459863,78.228885 Z M189.104342,178.474123 L138.32577,56.2720498 C136.876246,52.7476854 133.977698,50.8827909 130.459863,50.8827909 C126.935499,50.8827909 123.826002,52.7476854 122.376477,56.2720498 L66.6436045,190.312411 L85.708924,190.312411 L107.771234,135.047143 L173.610097,188.23707 C176.258016,190.378208 178.168617,191.346566 180.652297,191.346566 C185.626186,191.346566 189.973756,187.617782 189.973756,182.235555 C189.973756,181.359612 189.664363,179.969354 189.104342,178.474123 Z" fill="#1A1918"/>
  </g>
  </g>
  <g transform="translate(80.000,62.000) scale(0.017578,-0.017578)" fill="#1a1918"><path d="M1558 0H1298V352H384V0H124V717Q124 874 178.0 1006.0Q232 1138 328.0 1233.0Q424 1328 555.0 1381.0Q686 1434 841 1434H1427Q1454 1434 1478.0 1424.0Q1502 1414 1520.0 1396.0Q1538 1378 1548.0 1354.0Q1558 1330 1558 1303ZM384 612H1298V1174H841Q829 1174 790.5 1170.5Q752 1167 701.5 1153.0Q651 1139 595.0 1110.0Q539 1081 492.0 1030.0Q445 979 414.5 902.5Q384 826 384 717Z" transform="translate(0.000,0)"/><path d="M1584 111Q1584 83 1573.5 59.0Q1563 35 1545.5 17.5Q1528 0 1504.0 -10.0Q1480 -20 1453 -20Q1429 -20 1404.5 -11.0Q1380 -2 1361 18L411 1010V0H151V1323Q151 1363 173.5 1395.5Q196 1428 231 1444Q268 1459 307.0 1451.5Q346 1444 374 1415L1324 424V1434H1584Z" transform="translate(1913.800,0)"/><path d="M1529 422Q1529 345 1509.5 283.5Q1490 222 1458.0 175.0Q1426 128 1383.0 95.0Q1340 62 1294.0 41.0Q1248 20 1200.5 10.0Q1153 0 1111 0H108V260H1111Q1186 260 1227.5 304.0Q1269 348 1269 422Q1269 458 1258.0 488.0Q1247 518 1226.5 540.0Q1206 562 1176.5 574.0Q1147 586 1111 586H513Q450 586 377.0 608.5Q304 631 241.5 681.0Q179 731 137.5 812.0Q96 893 96 1010Q96 1127 137.5 1207.5Q179 1288 241.5 1338.5Q304 1389 377.0 1411.5Q450 1434 513 1434H1398V1174H513Q439 1174 397.5 1129.0Q356 1084 356 1010Q356 935 397.5 891.5Q439 848 513 848H1111H1113Q1155 847 1202.0 836.5Q1249 826 1295.5 804.0Q1342 782 1384.0 748.5Q1426 715 1458.5 668.0Q1491 621 1510.0 560.0Q1529 499 1529 422Z" transform="translate(3853.600,0)"/><path d="M413 0H153V1434H413Z" transform="translate(5652.400,0)"/><path d="M1582 315Q1582 267 1565.5 212.0Q1549 157 1511.5 110.0Q1474 63 1414.0 31.5Q1354 0 1267 0H280Q252 0 228.0 10.0Q204 20 186.5 37.5Q169 55 159.0 79.0Q149 103 149 131V1303Q149 1330 159.0 1354.0Q169 1378 186.5 1396.0Q204 1414 228.0 1424.0Q252 1434 280 1434H1150Q1198 1434 1253.0 1417.0Q1308 1400 1355.5 1362.5Q1403 1325 1434.5 1265.0Q1466 1205 1466 1118V1069Q1466 1000 1443.0 920.5Q1420 841 1369 770Q1413 743 1451.5 705.0Q1490 667 1519.0 617.0Q1548 567 1565.0 504.0Q1582 441 1582 365ZM1322 365Q1322 416 1306.0 456.5Q1290 497 1261.0 526.0Q1232 555 1191.0 570.5Q1150 586 1099 586H513V848H982Q1033 848 1074.0 863.5Q1115 879 1144.0 908.0Q1173 937 1188.5 977.5Q1204 1018 1204 1069V1118Q1204 1174 1150 1174H409V260H1267Q1274 260 1284.0 261.0Q1294 262 1302.0 267.0Q1310 272 1316.0 284.0Q1322 296 1322 317Z" transform="translate(6423.200,0)"/><path d="M1468 0H282Q254 0 230.0 10.0Q206 20 188.5 37.5Q171 55 161.0 79.0Q151 103 151 131V1434H411V260H1468Z" transform="translate(8285.000,0)"/><path d="M1330 586H509V848H1330ZM1447 0H509Q455 0 391.0 19.0Q327 38 272.5 81.5Q218 125 181.5 194.5Q145 264 145 365V1303Q145 1330 155.0 1354.0Q165 1378 182.5 1396.0Q200 1414 224.0 1424.0Q248 1434 276 1434H1447V1174H405V365Q405 314 432.0 287.0Q459 260 511 260H1447Z" transform="translate(9997.800,0)"/><path d="M1529 422Q1529 345 1509.5 283.5Q1490 222 1458.0 175.0Q1426 128 1383.0 95.0Q1340 62 1294.0 41.0Q1248 20 1200.5 10.0Q1153 0 1111 0H108V260H1111Q1186 260 1227.5 304.0Q1269 348 1269 422Q1269 458 1258.0 488.0Q1247 518 1226.5 540.0Q1206 562 1176.5 574.0Q1147 586 1111 586H513Q450 586 377.0 608.5Q304 631 241.5 681.0Q179 731 137.5 812.0Q96 893 96 1010Q96 1127 137.5 1207.5Q179 1288 241.5 1338.5Q304 1389 377.0 1411.5Q450 1434 513 1434H1398V1174H513Q439 1174 397.5 1129.0Q356 1084 356 1010Q356 935 397.5 891.5Q439 848 513 848H1111H1113Q1155 847 1202.0 836.5Q1249 826 1295.5 804.0Q1342 782 1384.0 748.5Q1426 715 1458.5 668.0Q1491 621 1510.0 560.0Q1529 499 1529 422Z" transform="translate(12620.400,0)"/><path d="M1330 586H509V848H1330ZM1447 0H509Q455 0 391.0 19.0Q327 38 272.5 81.5Q218 125 181.5 194.5Q145 264 145 365V1303Q145 1330 155.0 1354.0Q165 1378 182.5 1396.0Q200 1414 224.0 1424.0Q248 1434 276 1434H1447V1174H405V365Q405 314 432.0 287.0Q459 260 511 260H1447Z" transform="translate(14419.200,0)"/><path d="M1435 0H497Q461 0 419.5 8.5Q378 17 337.5 35.0Q297 53 260.0 81.5Q223 110 194.5 150.5Q166 191 149.0 244.5Q132 298 132 365V1069Q132 1105 140.5 1146.5Q149 1188 167.0 1228.5Q185 1269 214.0 1306.0Q243 1343 283.5 1371.5Q324 1400 377.0 1417.0Q430 1434 497 1434H1435V1174H497Q446 1174 419.0 1147.0Q392 1120 392 1067V365Q392 315 419.5 287.5Q447 260 497 260H1435Z" transform="translate(16171.000,0)"/><path d="M1556 131Q1556 103 1546.0 79.0Q1536 55 1518.0 37.5Q1500 20 1476.0 10.0Q1452 0 1425 0H839Q756 0 671.0 18.0Q586 36 506.5 73.5Q427 111 357.0 169.0Q287 227 234.5 306.5Q182 386 152.0 488.5Q122 591 122 717V1434H382V717Q382 607 412.5 531.0Q443 455 490.0 404.0Q537 353 593.0 324.0Q649 295 699.5 281.0Q750 267 788.5 263.5Q827 260 839 260H1296V1434H1556Z" transform="translate(17905.800,0)"/><path d="M1584 952Q1584 863 1562.0 793.0Q1540 723 1502.5 669.5Q1465 616 1416.0 578.0Q1367 540 1313.5 515.5Q1260 491 1205.5 480.0Q1151 469 1103 469L1646 0H1244L702 469H515V729H1103Q1152 733 1192.5 749.5Q1233 766 1262.5 794.0Q1292 822 1308.0 861.5Q1324 901 1324 952V1116Q1324 1138 1318.5 1149.5Q1313 1161 1304.5 1166.5Q1296 1172 1286.5 1173.0Q1277 1174 1269 1174H411V0H151V1303Q151 1330 161.0 1354.0Q171 1378 188.5 1396.0Q206 1414 230.0 1424.0Q254 1434 282 1434H1269Q1356 1434 1416.0 1402.5Q1476 1371 1513.5 1323.5Q1551 1276 1567.5 1221.0Q1584 1166 1584 1118Z" transform="translate(19817.600,0)"/><path d="M413 0H153V1434H413Z" transform="translate(21716.400,0)"/><path d="M1447 1174H874V0H614V1174H40V1434H1447Z" transform="translate(22487.200,0)"/><path d="M1517 954Q1517 865 1494.5 795.0Q1472 725 1435.0 671.5Q1398 618 1348.5 580.0Q1299 542 1246.0 517.5Q1193 493 1138.5 482.0Q1084 471 1036 471H931V0H669V471H565Q517 471 462.5 482.0Q408 493 354.5 517.5Q301 542 252.0 580.0Q203 618 165.5 671.5Q128 725 105.5 795.5Q83 866 83 954V1434H343V954Q343 903 359.0 862.5Q375 822 404.0 793.0Q433 764 474.5 748.5Q516 733 567 733H1036Q1073 739 1112.0 748.5Q1151 758 1183.0 781.0Q1215 804 1236.0 845.0Q1257 886 1257 954V1434H1517Z" transform="translate(24179.000,0)"/><path d="M1529 422Q1529 345 1509.5 283.5Q1490 222 1458.0 175.0Q1426 128 1383.0 95.0Q1340 62 1294.0 41.0Q1248 20 1200.5 10.0Q1153 0 1111 0H108V260H1111Q1186 260 1227.5 304.0Q1269 348 1269 422Q1269 458 1258.0 488.0Q1247 518 1226.5 540.0Q1206 562 1176.5 574.0Q1147 586 1111 586H513Q450 586 377.0 608.5Q304 631 241.5 681.0Q179 731 137.5 812.0Q96 893 96 1010Q96 1127 137.5 1207.5Q179 1288 241.5 1338.5Q304 1389 377.0 1411.5Q450 1434 513 1434H1398V1174H513Q439 1174 397.5 1129.0Q356 1084 356 1010Q356 935 397.5 891.5Q439 848 513 848H1111H1113Q1155 847 1202.0 836.5Q1249 826 1295.5 804.0Q1342 782 1384.0 748.5Q1426 715 1458.5 668.0Q1491 621 1510.0 560.0Q1529 499 1529 422Z" transform="translate(26854.600,0)"/><path d="M1435 0H497Q461 0 419.5 8.5Q378 17 337.5 35.0Q297 53 260.0 81.5Q223 110 194.5 150.5Q166 191 149.0 244.5Q132 298 132 365V1069Q132 1105 140.5 1146.5Q149 1188 167.0 1228.5Q185 1269 214.0 1306.0Q243 1343 283.5 1371.5Q324 1400 377.0 1417.0Q430 1434 497 1434H1435V1174H497Q446 1174 419.0 1147.0Q392 1120 392 1067V365Q392 315 419.5 287.5Q447 260 497 260H1435Z" transform="translate(28653.400,0)"/><path d="M1558 0H1298V352H384V0H124V717Q124 874 178.0 1006.0Q232 1138 328.0 1233.0Q424 1328 555.0 1381.0Q686 1434 841 1434H1427Q1454 1434 1478.0 1424.0Q1502 1414 1520.0 1396.0Q1538 1378 1548.0 1354.0Q1558 1330 1558 1303ZM384 612H1298V1174H841Q829 1174 790.5 1170.5Q752 1167 701.5 1153.0Q651 1139 595.0 1110.0Q539 1081 492.0 1030.0Q445 979 414.5 902.5Q384 826 384 717Z" transform="translate(30388.200,0)"/><path d="M1584 111Q1584 83 1573.5 59.0Q1563 35 1545.5 17.5Q1528 0 1504.0 -10.0Q1480 -20 1453 -20Q1429 -20 1404.5 -11.0Q1380 -2 1361 18L411 1010V0H151V1323Q151 1363 173.5 1395.5Q196 1428 231 1444Q268 1459 307.0 1451.5Q346 1444 374 1415L1324 424V1434H1584Z" transform="translate(32302.000,0)"/><path d="M1584 111Q1584 83 1573.5 59.0Q1563 35 1545.5 17.5Q1528 0 1504.0 -10.0Q1480 -20 1453 -20Q1429 -20 1404.5 -11.0Q1380 -2 1361 18L411 1010V0H151V1323Q151 1363 173.5 1395.5Q196 1428 231 1444Q268 1459 307.0 1451.5Q346 1444 374 1415L1324 424V1434H1584Z" transform="translate(34241.800,0)"/><path d="M1330 586H509V848H1330ZM1447 0H509Q455 0 391.0 19.0Q327 38 272.5 81.5Q218 125 181.5 194.5Q145 264 145 365V1303Q145 1330 155.0 1354.0Q165 1378 182.5 1396.0Q200 1414 224.0 1424.0Q248 1434 276 1434H1447V1174H405V365Q405 314 432.0 287.0Q459 260 511 260H1447Z" transform="translate(36181.600,0)"/><path d="M1584 952Q1584 863 1562.0 793.0Q1540 723 1502.5 669.5Q1465 616 1416.0 578.0Q1367 540 1313.5 515.5Q1260 491 1205.5 480.0Q1151 469 1103 469L1646 0H1244L702 469H515V729H1103Q1152 733 1192.5 749.5Q1233 766 1262.5 794.0Q1292 822 1308.0 861.5Q1324 901 1324 952V1116Q1324 1138 1318.5 1149.5Q1313 1161 1304.5 1166.5Q1296 1172 1286.5 1173.0Q1277 1174 1269 1174H411V0H151V1303Q151 1330 161.0 1354.0Q171 1378 188.5 1396.0Q206 1414 230.0 1424.0Q254 1434 282 1434H1269Q1356 1434 1416.0 1402.5Q1476 1371 1513.5 1323.5Q1551 1276 1567.5 1221.0Q1584 1166 1584 1118Z" transform="translate(37933.400,0)"/></g>
</svg>
